<svg width="12" height="13" viewBox="0 0 12 13" fill="none" xmlns="http://www.w3.org/2000/svg">
<path fill-rule="evenodd" clip-rule="evenodd" d="M11.8333 6.52492C11.8333 9.74658 9.22167 12.3583 6.00001 12.3583C2.77834 12.3583 0.166672 9.74658 0.166672 6.52492C0.166672 3.30326 2.77834 0.691589 6.00001 0.691589C9.22167 0.691589 11.8333 3.30326 11.8333 6.52492ZM5.41667 4.19159C5.41667 3.86942 5.67784 3.60826 6.00001 3.60826H6.00584C6.328 3.60826 6.58917 3.86942 6.58917 4.19159C6.58917 4.51376 6.328 4.77492 6.00584 4.77492H6.00001C5.67784 4.77492 5.41667 4.51376 5.41667 4.19159ZM6.00001 5.94159C6.32217 5.94159 6.58334 6.20276 6.58334 6.52492V8.85826C6.58334 9.18042 6.32217 9.44159 6.00001 9.44159C5.67784 9.44159 5.41667 9.18042 5.41667 8.85826V6.52492C5.41667 6.20276 5.67784 5.94159 6.00001 5.94159Z" fill="#EB5835"/>
</svg>
